<svg xmlns="http://www.w3.org/2000/svg" version="1.1" xmlns:xlink="http://www.w3.org/1999/xlink" xmlns:svgjs="http://svgjs.dev/svgjs" width="2147" height="1218"><svg width="2147" height="1218" viewBox="0 0 2147 1218" fill="none" xmlns="http://www.w3.org/2000/svg">
<path d="M2090 0C2093.79 1.7655 2096.41 4.1398 2099.32 7.0923C2100.1 7.8681 2100.1 7.8681 2100.89 8.6597C2102.59 10.3648 2104.29 12.0768 2105.98 13.7891C2107.17 14.9749 2108.35 16.1603 2109.53 17.3453C2112.64 20.4612 2115.74 23.583 2118.84 26.7061C2122.01 29.8936 2125.18 33.0755 2128.36 36.2578C2134.58 42.5 2140.79 48.748 2147 55C2145.56 58.3 2143.77 60.478 2141.23 63.017C2140.04 64.211 2140.04 64.211 2138.83 65.429C2137.96 66.299 2137.08 67.169 2136.18 68.066C2135.25 68.998 2134.32 69.929 2133.36 70.889C2130.77 73.487 2128.17 76.08 2125.57 78.671C2122.75 81.486 2119.94 84.307 2117.12 87.127C2112.18 92.073 2107.23 97.016 2102.28 101.956C2094.92 109.302 2087.57 116.653 2080.22 124.006C2067.86 136.373 2055.49 148.736 2043.12 161.095C2030.86 173.337 2018.61 185.581 2006.36 197.827C2005.6 198.588 2004.84 199.349 2004.06 200.133C2000.19 203.997 1996.33 207.86 1992.46 211.724C1965.08 239.107 1937.69 266.485 1910.29 293.86C1883.67 320.458 1857.06 347.058 1830.45 373.662C1829.63 374.481 1828.81 375.301 1827.96 376.146C1819.73 384.377 1811.49 392.609 1803.26 400.841C1786.49 417.611 1769.71 434.38 1752.94 451.149C1752.16 451.921 1751.39 452.692 1750.6 453.486C1699.07 504.995 1647.54 556.498 1596 608C1600.79 613.769 1605.94 619.073 1611.25 624.362C1612.18 625.289 1613.11 626.216 1614.06 627.171C1616.63 629.74 1619.21 632.307 1621.78 634.873C1624.58 637.666 1627.38 640.463 1630.18 643.259C1635.08 648.158 1639.99 653.054 1644.9 657.95C1652.2 665.23 1659.49 672.513 1666.78 679.796C1678.3 691.298 1689.82 702.797 1701.34 714.296C1719.62 732.54 1737.89 750.79 1756.16 769.042C1760.05 772.926 1763.93 776.809 1767.82 780.693C1772.54 785.407 1777.26 790.122 1781.98 794.836C1799.77 812.611 1817.56 830.384 1835.36 848.157C1836.17 848.97 1836.98 849.782 1837.82 850.619C1864.22 876.983 1890.62 903.34 1917.02 929.695C1944.16 956.78 1971.29 983.88 1998.41 1010.98C2002.24 1014.81 2006.06 1018.63 2009.89 1022.45C2011.02 1023.58 2011.02 1023.58 2012.17 1024.73C2024.31 1036.87 2036.46 1048.99 2048.62 1061.11C2060.82 1073.28 2073.01 1085.46 2085.19 1097.65C2092.44 1104.89 2099.69 1112.13 2106.96 1119.37C2111.8 1124.19 2116.63 1129.02 2121.46 1133.86C2124.21 1136.62 2126.97 1139.38 2129.74 1142.12C2132.72 1145.08 2135.67 1148.04 2138.63 1151.02C2139.5 1151.88 2140.38 1152.74 2141.28 1153.63C2142.06 1154.42 2142.84 1155.2 2143.64 1156.02C2144.32 1156.69 2144.99 1157.37 2145.69 1158.07C2147 1160 2147 1160 2146.85 1162.09C2145.52 1165.09 2143.24 1167.15 2140.93 1169.41C2140.4 1169.94 2139.88 1170.47 2139.33 1171.01C2137.59 1172.75 2135.84 1174.48 2134.09 1176.2C2132.88 1177.41 2131.67 1178.61 2130.46 1179.82C2127.28 1182.99 2124.09 1186.15 2120.9 1189.31C2117.64 1192.53 2114.4 1195.77 2111.15 1199C2104.77 1205.34 2098.39 1211.67 2092 1218C2088.7 1216.56 2086.52 1214.77 2083.98 1212.23C2083.19 1211.44 2082.39 1210.65 2081.57 1209.83C2080.7 1208.96 2079.83 1208.08 2078.93 1207.18C2077.54 1205.79 2077.54 1205.79 2076.11 1204.36C2073.51 1201.77 2070.92 1199.17 2068.33 1196.57C2065.51 1193.75 2062.69 1190.94 2059.87 1188.12C2054.93 1183.18 2049.98 1178.23 2045.04 1173.28C2037.7 1165.92 2030.35 1158.57 2022.99 1151.22C2010.63 1138.86 1998.26 1126.49 1985.9 1114.12C1973.66 1101.86 1961.42 1089.61 1949.17 1077.36C1948.41 1076.6 1947.65 1075.84 1946.87 1075.06C1943 1071.19 1939.14 1067.33 1935.28 1063.46C1907.89 1036.08 1880.52 1008.69 1853.14 981.29C1826.54 954.67 1799.94 928.06 1773.34 901.448C1772.52 900.628 1771.7 899.808 1770.85 898.964C1762.62 890.729 1754.39 882.495 1746.16 874.261C1729.39 857.486 1712.62 840.711 1695.85 823.935C1695.08 823.164 1694.31 822.393 1693.51 821.598C1642 770.07 1590.5 718.536 1539 667C1535.01 670.364 1531.12 673.757 1527.43 677.451C1526.59 678.291 1525.75 679.132 1524.88 679.997C1523.97 680.905 1523.07 681.813 1522.14 682.748C1521.15 683.734 1520.17 684.72 1519.18 685.706C1516.48 688.401 1513.79 691.1 1511.1 693.8C1508.19 696.716 1505.28 699.629 1502.36 702.542C1497.32 707.587 1492.28 712.634 1487.24 717.682C1479.95 724.989 1472.65 732.293 1465.35 739.595C1453.5 751.455 1441.65 763.317 1429.8 775.18C1429.09 775.889 1428.38 776.599 1427.65 777.33C1421.9 783.086 1416.15 788.843 1410.4 794.599C1405.38 799.629 1400.36 804.659 1395.33 809.69C1394.62 810.398 1393.92 811.106 1393.19 811.836C1381.38 823.655 1369.58 835.471 1357.77 847.286C1350.49 854.569 1343.21 861.854 1335.94 869.141C1330.95 874.134 1325.97 879.126 1320.98 884.117C1318.1 886.995 1315.23 889.873 1312.35 892.754C1309.72 895.394 1307.08 898.032 1304.44 900.668C1303.05 902.067 1301.65 903.468 1300.26 904.869C1295.84 909.282 1291.36 913.552 1286.61 917.609C1284.69 919.267 1282.93 921.037 1281.19 922.875C1276.45 927.659 1271.3 931.863 1266 936C1265.41 936.459 1264.82 936.918 1264.22 937.392C1198.38 988.47 1114.8 1011.72 1032 1002C998.734 997.7 966.189 988.69 936 974C935.283 973.66 934.566 973.31 933.827 972.96C891.142 952.43 857.786 921.963 824.63 888.747C821.649 885.761 818.664 882.778 815.68 879.794C810.527 874.642 805.376 869.488 800.226 864.332C792.781 856.878 785.332 849.427 777.883 841.977C765.794 829.885 753.706 817.791 741.62 805.696C729.889 793.956 718.157 782.217 706.424 770.479C705.699 769.754 704.974 769.029 704.227 768.282C700.59 764.643 696.953 761.005 693.316 757.367C663.208 727.248 633.103 697.125 603 667C599.722 668.436 597.551 670.199 595.028 672.724C594.242 673.505 593.456 674.286 592.646 675.092C591.787 675.956 590.928 676.82 590.043 677.711C588.664 679.087 588.664 679.087 587.256 680.491C584.691 683.05 582.132 685.615 579.574 688.182C576.795 690.968 574.01 693.748 571.225 696.529C566.342 701.408 561.463 706.291 556.586 711.176C549.334 718.44 542.076 725.698 534.817 732.955C522.608 745.162 510.403 757.374 498.201 769.588C486.116 781.685 474.028 793.78 461.938 805.872C461.187 806.624 460.436 807.375 459.662 808.149C455.847 811.964 452.033 815.779 448.218 819.594C421.185 846.632 394.157 873.674 367.131 900.718C340.872 926.995 314.611 953.27 288.348 979.54C287.538 980.35 286.729 981.16 285.895 982C277.769 990.12 269.642 998.25 261.515 1006.38C244.959 1022.94 228.404 1039.51 211.849 1056.07C211.087 1056.83 210.326 1057.59 209.542 1058.37C158.69 1109.24 107.844 1160.12 57 1211C53.2105 1209.23 50.5897 1206.86 47.6807 1203.91C47.1631 1203.39 46.6456 1202.87 46.1124 1202.34C44.4087 1200.64 42.7122 1198.92 41.0156 1197.21C39.8335 1196.03 38.651 1194.84 37.468 1193.65C34.3598 1190.54 31.2575 1187.42 28.1565 1184.29C24.9895 1181.11 21.8168 1177.92 18.6445 1174.74C12.4241 1168.5 6.21006 1162.25 0 1156C1.43584 1152.72 3.19929 1150.55 5.72363 1148.03C6.50504 1147.24 7.28647 1146.46 8.09155 1145.65C8.95585 1144.79 9.8202 1143.93 10.7107 1143.04C11.6281 1142.12 12.5455 1141.2 13.4907 1140.26C16.0499 1137.69 18.6153 1135.13 21.1816 1132.57C23.9677 1129.79 26.748 1127.01 29.5291 1124.23C34.4081 1119.34 39.2908 1114.46 44.1759 1109.59C51.44 1102.33 58.6983 1095.08 65.9554 1087.82C78.1622 1075.61 90.3736 1063.4 102.588 1051.2C114.685 1039.12 126.78 1027.03 138.872 1014.94C139.624 1014.19 140.375 1013.44 141.149 1012.66C144.964 1008.85 148.779 1005.03 152.594 1001.22C179.632 974.19 206.674 947.16 233.718 920.131C259.995 893.872 286.27 867.611 312.542 841.348C313.352 840.538 314.162 839.729 314.996 838.895C323.125 830.769 331.254 822.642 339.383 814.515C355.944 797.959 372.506 781.404 389.067 764.848C389.828 764.087 390.59 763.326 391.374 762.542C442.245 711.69 493.122 660.844 544 610C542.564 606.721 540.802 604.554 538.275 602.032C537.493 601.248 536.712 600.463 535.906 599.654C535.042 598.796 534.177 597.938 533.286 597.054C532.369 596.136 531.451 595.217 530.506 594.271C527.946 591.709 525.379 589.153 522.812 586.599C520.025 583.823 517.244 581.042 514.462 578.261C509.582 573.384 504.697 568.51 499.811 563.64C492.544 556.396 485.284 549.148 478.024 541.898C466.563 530.451 455.098 519.008 443.631 507.567C425.435 489.413 407.247 471.25 389.062 453.084C382.069 446.099 375.077 439.115 368.084 432.13C367.307 431.354 366.53 430.578 365.73 429.779C347.231 411.301 328.729 392.825 310.227 374.351C309.012 373.138 309.012 373.138 307.773 371.9C288.873 353.029 269.971 334.159 251.065 315.292C250.252 314.48 249.438 313.668 248.6 312.832C244.498 308.738 240.396 304.645 236.294 300.551C235.483 299.742 234.673 298.933 233.837 298.1C232.201 296.467 230.564 294.834 228.928 293.201C201.921 266.249 174.922 239.29 147.933 212.32C144.125 208.516 140.318 204.711 136.51 200.906C135.76 200.158 135.011 199.409 134.239 198.637C122.153 186.562 110.057 174.495 97.9584 162.433C85.8111 150.321 73.6727 138.201 61.5435 126.072C54.3282 118.857 47.106 111.65 39.8738 104.452C35.0518 99.652 30.2389 94.843 25.4333 90.026C22.6896 87.276 19.942 84.531 17.1833 81.796C14.2207 78.859 11.2774 75.904 8.33594 72.946C7.46433 72.088 6.59285 71.23 5.69482 70.346C4.92067 69.561 4.14649 68.776 3.34888 67.968C2.33482 66.955 2.33484 66.955 1.30029 65.923C8.04663e-05 64 -2.54959e-05 64 0.155029 61.91C1.48221 58.91 3.76012 56.85 6.07056 54.589C6.86082 53.798 6.86077 53.798 7.66699 52.991C9.40768 51.252 11.1588 49.525 12.9102 47.797C14.1201 46.593 15.3292 45.388 16.5378 44.182C19.719 41.0123 22.9091 37.8517 26.1011 34.693C29.3573 31.4674 32.605 28.2334 35.8535 25C42.2274 18.6583 48.6107 12.3262 55 6C58.2813 7.4368 60.4531 9.2036 62.9785 11.7301C64.1595 12.9044 64.1595 12.9044 65.3644 14.1024C66.225 14.9683 67.0857 15.8342 67.9724 16.7263C68.8938 17.6454 69.8152 18.5645 70.7645 19.5115C73.3345 22.0753 75.8983 24.6454 78.4611 27.2165C81.2454 30.0078 84.0356 32.7932 86.8251 35.5794C91.7172 40.4674 96.6057 45.359 101.492 50.253C108.757 57.531 116.028 64.802 123.301 72.073C135.532 84.302 147.76 96.536 159.984 108.773C172.092 120.892 184.202 133.01 196.314 145.125C197.067 145.877 197.819 146.63 198.595 147.405C202.416 151.227 206.238 155.05 210.059 158.872C237.142 185.959 264.221 213.051 291.296 240.146C317.604 266.471 343.913 292.795 370.225 319.115C371.036 319.926 371.847 320.737 372.682 321.573C380.824 329.717 388.965 337.861 397.107 346.006C413.693 362.597 430.28 379.189 446.865 395.781C448.009 396.925 448.009 396.925 449.177 398.093C500.122 449.057 551.062 500.028 602 551C606.068 547.573 610.022 544.103 613.782 540.336C614.67 539.448 615.559 538.56 616.474 537.646C617.44 536.675 618.407 535.705 619.373 534.734C620.414 533.692 621.456 532.649 622.498 531.607C625.348 528.756 628.194 525.901 631.041 523.046C634.116 519.962 637.194 516.882 640.272 513.8C645.602 508.464 650.931 503.126 656.258 497.786C663.972 490.056 671.689 482.329 679.408 474.603C691.946 462.053 704.482 449.502 717.017 436.948C717.767 436.198 718.517 435.447 719.289 434.673C729.925 424.022 740.559 413.369 751.193 402.715C751.942 401.965 752.69 401.215 753.461 400.443C754.583 399.319 754.583 399.319 755.727 398.173C768.209 385.668 780.695 373.166 793.184 360.668C800.88 352.966 808.573 345.261 816.262 337.552C821.534 332.266 826.81 326.983 832.089 321.703C835.131 318.661 838.171 315.617 841.207 312.568C843.992 309.771 846.782 306.979 849.575 304.191C850.579 303.187 851.581 302.182 852.581 301.174C859.056 294.657 865.789 288.69 873 283C873.757 282.397 874.514 281.795 875.293 281.174C921.788 244.257 977.991 221.407 1037 215C1037.76 214.906 1038.52 214.811 1039.31 214.714C1049.35 213.604 1059.47 213.756 1069.56 213.75C1070.57 213.749 1071.57 213.749 1072.61 213.748C1088.27 213.765 1103.53 214.331 1119 217C1120.02 217.172 1121.04 217.343 1122.08 217.52C1192.11 229.651 1251.08 263.805 1300.86 313.738C1301.89 314.771 1302.92 315.803 1303.96 316.835C1306.76 319.636 1309.56 322.439 1312.36 325.243C1315.39 328.28 1318.43 331.315 1321.46 334.349C1326.71 339.595 1331.95 344.843 1337.2 350.092C1344.78 357.68 1352.36 365.267 1359.95 372.852C1372.25 385.162 1384.56 397.474 1396.86 409.787C1408.81 421.741 1420.75 433.695 1432.7 445.647C1433.81 446.754 1433.81 446.754 1434.94 447.883C1438.64 451.585 1442.34 455.287 1446.04 458.989C1476.7 489.656 1507.35 520.327 1538 551C1543.77 546.206 1549.08 541.061 1554.37 535.75C1555.3 534.823 1556.23 533.896 1557.19 532.941C1559.76 530.371 1562.33 527.798 1564.9 525.225C1567.69 522.424 1570.49 519.626 1573.29 516.829C1578.2 511.926 1583.1 507.021 1588 502.115C1595.29 494.82 1602.58 487.528 1609.88 480.237C1622.14 467.971 1634.41 455.703 1646.67 443.434C1658.81 431.285 1670.96 419.138 1683.1 406.992C1683.86 406.236 1684.61 405.481 1685.39 404.703C1689.23 400.868 1693.06 397.033 1696.9 393.198C1724.06 366.034 1751.22 338.867 1778.38 311.698C1804.76 285.304 1831.15 258.911 1857.54 232.52C1858.35 231.706 1859.16 230.893 1860 230.054C1868.17 221.885 1876.34 213.716 1884.5 205.547C1901.14 188.905 1917.78 172.264 1934.42 155.622C1935.19 154.857 1935.95 154.091 1936.74 153.303C1987.83 102.204 2038.91 51.102 2090 0ZM927 343C925.708 344.004 925.708 344.004 924.391 345.027C907.649 358.327 892.848 374.007 877.768 389.116C874.824 392.064 871.877 395.01 868.93 397.956C863.844 403.042 858.759 408.129 853.676 413.218C846.327 420.576 838.975 427.93 831.622 435.284C819.688 447.22 807.757 459.158 795.827 471.098C784.248 482.686 772.668 494.272 761.087 505.858C760.014 506.932 760.014 506.932 758.919 508.027C755.328 511.619 751.737 515.211 748.146 518.803C718.428 548.532 688.713 578.265 659 608C664.049 614.098 669.538 619.682 675.138 625.272C676.167 626.303 677.196 627.334 678.224 628.365C681.037 631.184 683.854 634 686.671 636.816C689.714 639.859 692.754 642.904 695.794 645.949C701.746 651.91 707.701 657.868 713.658 663.825C718.501 668.669 723.344 673.514 728.186 678.359C741.927 692.109 755.67 705.857 769.416 719.602C770.156 720.342 770.897 721.082 771.66 721.845C772.401 722.587 773.143 723.328 773.906 724.092C785.918 736.102 797.924 748.118 809.927 760.136C822.265 772.488 834.606 784.836 846.951 797.18C853.877 804.105 860.801 811.032 867.721 817.963C873.614 823.865 879.51 829.764 885.411 835.658C888.418 838.662 891.424 841.667 894.426 844.677C897.179 847.439 899.938 850.196 902.7 852.949C903.692 853.94 904.683 854.933 905.672 855.927C920.638 870.972 937.547 883.576 956 894C956.641 894.368 957.282 894.737 957.942 895.116C1011.03 925.432 1074.83 930.99 1133.43 915.621C1178.64 903.044 1215.03 876.193 1247.71 843.414C1248.72 842.398 1249.74 841.382 1250.76 840.366C1253.51 837.611 1256.27 834.853 1259.02 832.095C1262 829.107 1264.99 826.122 1267.98 823.136C1273.14 817.975 1278.3 812.813 1283.46 807.649C1290.91 800.183 1298.37 792.72 1305.84 785.258C1317.94 773.148 1330.05 761.036 1342.15 748.922C1353.9 737.161 1365.66 725.402 1377.41 713.644C1378.14 712.918 1378.86 712.192 1379.61 711.444C1383.25 707.802 1386.89 704.16 1390.53 700.518C1420.69 670.348 1450.85 640.175 1481 610C1479.5 606.501 1477.49 604.24 1474.81 601.556C1473.93 600.667 1473.04 599.777 1472.13 598.861C1471.15 597.878 1470.16 596.895 1469.17 595.912C1468.13 594.865 1467.09 593.818 1466.04 592.77C1463.17 589.888 1460.29 587.013 1457.41 584.139C1454.31 581.038 1451.21 577.932 1448.12 574.827C1442.04 568.741 1435.96 562.66 1429.88 556.582C1424.94 551.637 1419.99 546.69 1415.05 541.742C1414.35 541.038 1413.64 540.334 1412.92 539.609C1411.49 538.179 1410.06 536.749 1408.63 535.318C1395.22 521.894 1381.8 508.476 1368.37 495.059C1356.11 482.804 1343.86 470.54 1331.61 458.272C1319.03 445.667 1306.44 433.069 1293.84 420.476C1286.77 413.409 1279.7 406.34 1272.64 399.266C1266.63 393.237 1260.61 387.214 1254.58 381.197C1251.5 378.131 1248.44 375.063 1245.37 371.988C1228.56 355.002 1228.56 355.002 1210 340C1208.82 339.12 1207.65 338.236 1206.47 337.35C1167.85 308.243 1118.97 293.453 1070.88 293.688C1070.07 293.69 1069.27 293.692 1068.44 293.694C1017.08 293.914 967.293 311.013 927 343Z" fill="#439CB7"></path>
<path d="M1069.56 213.75C1070.57 213.749 1071.57 213.749 1072.61 213.748C1088.27 213.765 1103.53 214.331 1119 217C1120.02 217.172 1121.04 217.343 1122.08 217.52C1192.16 229.661 1250.98 263.85 1300.86 313.711C1301.9 314.741 1302.93 315.77 1303.97 316.8C1306.77 319.593 1309.57 322.388 1312.37 325.185C1315.41 328.214 1318.45 331.24 1321.48 334.266C1328.79 341.548 1336.09 348.834 1343.39 356.122C1345.45 358.18 1347.52 360.239 1349.58 362.297C1362.4 375.096 1375.23 387.897 1388.04 400.702C1391 403.657 1393.96 406.612 1396.92 409.567C1397.65 410.302 1398.39 411.036 1399.14 411.793C1411.09 423.728 1423.05 435.653 1435.01 447.575C1447.31 459.824 1459.59 472.083 1471.86 484.351C1478.75 491.235 1485.64 498.115 1492.54 504.985C1498.41 510.824 1504.27 516.672 1510.12 522.531C1513.1 525.521 1516.09 528.507 1519.09 531.482C1521.83 534.202 1524.56 536.933 1527.29 539.673C1528.28 540.666 1529.27 541.654 1530.27 542.638C1531.62 543.969 1532.95 545.317 1534.28 546.665C1535.03 547.411 1535.78 548.157 1536.55 548.926C1538 551 1538 551 1537.87 553.113C1536.5 556.084 1534.23 558.155 1531.93 560.411C1531.4 560.938 1530.88 561.466 1530.33 562.009C1528.59 563.748 1526.84 565.475 1525.09 567.203C1523.88 568.407 1522.67 569.612 1521.46 570.818C1518.28 573.988 1515.09 577.148 1511.9 580.307C1508.64 583.533 1505.39 586.767 1502.15 590C1495.77 596.342 1489.39 602.674 1483 609C1479.5 607.5 1477.24 605.491 1474.56 602.802C1473.68 601.917 1472.79 601.031 1471.87 600.119C1470.89 599.13 1469.91 598.142 1468.93 597.153C1467.89 596.107 1466.84 595.061 1465.8 594.016C1462.92 591.138 1460.05 588.255 1457.18 585.371C1454.09 582.262 1450.99 579.159 1447.89 576.055C1442.52 570.673 1437.15 565.288 1431.78 559.9C1424.01 552.097 1416.23 544.3 1408.44 536.506C1395.8 523.842 1383.16 511.176 1370.52 498.506C1369.38 497.368 1369.38 497.368 1368.23 496.207C1359.8 487.754 1351.37 479.301 1342.94 470.847C1339.89 467.787 1336.83 464.728 1333.78 461.668C1333.03 460.913 1332.28 460.158 1331.5 459.38C1318.93 446.767 1306.34 434.16 1293.76 421.557C1286 413.79 1278.25 406.018 1270.5 398.239C1265.19 392.9 1259.86 387.566 1254.54 382.236C1251.47 379.166 1248.4 376.094 1245.35 373.015C1228.56 356.005 1228.56 356.005 1210 341C1208.82 340.12 1207.65 339.237 1206.47 338.351C1167.86 309.242 1118.97 294.453 1070.88 294.688C1070.07 294.69 1069.27 294.692 1068.44 294.694C1017.08 294.914 967.293 312.013 927 344C926.139 344.669 925.278 345.338 924.391 346.027C907.649 359.327 892.848 375.007 877.768 390.116C874.824 393.064 871.877 396.01 868.93 398.956C863.844 404.042 858.759 409.129 853.676 414.218C846.327 421.576 838.975 428.93 831.622 436.284C819.688 448.22 807.757 460.158 795.827 472.098C784.248 483.686 772.668 495.272 761.087 506.858C760.372 507.574 759.656 508.29 758.919 509.027C755.328 512.619 751.737 516.211 748.146 519.803C718.428 549.532 688.713 579.265 659 609C657.89 608.056 656.78 607.11 655.671 606.164C655.053 605.637 654.435 605.111 653.799 604.568C651.299 602.389 648.957 600.076 646.615 597.729C646.127 597.24 645.638 596.752 645.135 596.249C643.547 594.66 641.963 593.068 640.379 591.477C639.268 590.364 638.157 589.251 637.046 588.139C634.142 585.232 631.241 582.321 628.341 579.41C625.373 576.432 622.402 573.456 619.432 570.48C613.618 564.656 607.808 558.829 602 553C607.093 546.845 612.64 541.217 618.29 535.576C619.336 534.529 620.381 533.482 621.425 532.434C624.284 529.569 627.146 526.707 630.009 523.846C633.101 520.754 636.19 517.659 639.279 514.565C645.328 508.508 651.379 502.454 657.432 496.401C662.354 491.479 667.275 486.556 672.195 481.632C686.157 467.661 700.122 453.692 714.089 439.726C714.841 438.973 715.594 438.221 716.369 437.446C717.122 436.693 717.876 435.939 718.652 435.163C730.857 422.958 743.057 410.749 755.255 398.537C767.791 385.986 780.331 373.439 792.875 360.896C799.912 353.859 806.948 346.82 813.981 339.777C819.968 333.78 825.96 327.787 831.956 321.798C835.012 318.745 838.066 315.691 841.116 312.632C843.914 309.826 846.717 307.025 849.524 304.227C850.532 303.22 851.539 302.211 852.544 301.201C859.033 294.678 865.778 288.7 873 283C873.757 282.398 874.513 281.795 875.293 281.174C921.788 244.258 977.991 221.407 1037 215C1037.76 214.906 1038.52 214.811 1039.31 214.714C1049.35 213.604 1059.47 213.756 1069.56 213.75Z" fill="#EF5436"></path>
<path d="M1594 609C1597.3 610.442 1599.48 612.227 1602.02 614.764C1602.81 615.554 1603.61 616.345 1604.43 617.159C1605.3 618.034 1606.17 618.908 1607.07 619.809C1608.47 621.201 1608.47 621.201 1609.89 622.621C1612.49 625.21 1615.08 627.805 1617.68 630.401C1620.49 633.22 1623.31 636.033 1626.14 638.846C1631.08 643.782 1636.03 648.722 1640.97 653.664C1648.32 661.013 1655.67 668.356 1663.03 675.698C1677.69 690.336 1692.34 704.982 1707 719.631C1707.76 720.389 1708.52 721.148 1709.3 721.93C1710.44 723.071 1710.44 723.071 1711.6 724.234C1720.02 732.651 1728.44 741.067 1736.87 749.482C1762.29 774.884 1787.71 800.288 1813.12 825.699C1813.94 826.512 1814.75 827.325 1815.59 828.163C1818.88 831.458 1822.18 834.753 1825.47 838.048C1827.95 840.529 1830.43 843.009 1832.91 845.489C1833.73 846.309 1834.55 847.128 1835.4 847.973C1861.17 873.741 1886.95 899.499 1912.74 925.25C1941.69 954.16 1970.63 983.08 1999.56 1012.01C2002.64 1015.09 2005.72 1018.17 2008.8 1021.25C2009.56 1022.01 2010.32 1022.77 2011.1 1023.55C2023.34 1035.79 2035.59 1048.01 2047.83 1060.24C2060.13 1072.51 2072.42 1084.8 2084.7 1097.09C2092 1104.4 2099.31 1111.71 2106.64 1119.01C2111.52 1123.87 2116.39 1128.75 2121.25 1133.63C2124.03 1136.41 2126.81 1139.2 2129.6 1141.97C2132.6 1144.95 2135.58 1147.94 2138.56 1150.94C2139.44 1151.81 2140.32 1152.68 2141.23 1153.57C2142.02 1154.37 2142.8 1155.17 2143.61 1155.99C2144.29 1156.67 2144.98 1157.35 2145.68 1158.06C2147 1160 2147 1160 2146.85 1162.09C2145.52 1165.09 2143.24 1167.15 2140.93 1169.41C2140.4 1169.94 2139.88 1170.47 2139.33 1171.01C2137.59 1172.75 2135.84 1174.48 2134.09 1176.2C2132.88 1177.41 2131.67 1178.61 2130.46 1179.82C2127.28 1182.99 2124.09 1186.15 2120.9 1189.31C2117.64 1192.53 2114.39 1195.77 2111.15 1199C2104.77 1205.34 2098.39 1211.67 2092 1218C2088.7 1216.56 2086.52 1214.77 2083.98 1212.22C2083.18 1211.43 2082.38 1210.64 2081.56 1209.82C2080.69 1208.95 2079.82 1208.07 2078.92 1207.16C2077.98 1206.23 2077.05 1205.3 2076.09 1204.34C2073.49 1201.75 2070.89 1199.14 2068.29 1196.54C2065.47 1193.71 2062.65 1190.89 2059.82 1188.07C2054.87 1183.12 2049.92 1178.16 2044.97 1173.21C2037.61 1165.83 2030.24 1158.47 2022.88 1151.1C2010.49 1138.72 1998.1 1126.33 1985.72 1113.93C1973.46 1101.65 1961.19 1089.38 1948.92 1077.11C1948.16 1076.35 1947.4 1075.59 1946.61 1074.8C1942.74 1070.93 1938.87 1067.06 1935 1063.19C1907.57 1035.75 1880.14 1008.31 1852.71 980.86C1826.07 954.2 1799.42 927.536 1772.77 900.875C1771.53 899.643 1771.53 899.643 1770.28 898.386C1762.03 890.137 1753.78 881.888 1745.54 873.638C1728.74 856.833 1711.94 840.027 1695.14 823.221C1693.98 822.062 1693.98 822.062 1692.8 820.88C1641.19 769.258 1589.6 717.629 1538 666C1538.94 664.89 1539.89 663.78 1540.84 662.671C1541.63 661.744 1541.63 661.744 1542.43 660.799C1544.61 658.299 1546.92 655.957 1549.27 653.615C1549.76 653.127 1550.25 652.638 1550.75 652.135C1552.34 650.547 1553.93 648.963 1555.52 647.379C1556.64 646.268 1557.75 645.157 1558.86 644.046C1561.77 641.142 1564.68 638.241 1567.59 635.341C1570.57 632.373 1573.54 629.402 1576.52 626.432C1582.34 620.618 1588.17 614.808 1594 609Z" fill="#EF5436"></path>
<path d="M545 609C548.789 610.766 551.41 613.14 554.319 616.092C554.837 616.61 555.354 617.127 555.888 617.66C557.591 619.365 559.288 621.077 560.984 622.789C562.167 623.975 563.349 625.16 564.532 626.345C567.64 629.461 570.742 632.583 573.843 635.706C577.01 638.894 580.183 642.075 583.355 645.258C589.576 651.5 595.79 657.748 602 664C600.563 667.281 598.796 669.453 596.27 671.979C595.487 672.766 594.704 673.553 593.898 674.364C593.032 675.225 592.166 676.086 591.274 676.972C590.355 677.894 589.435 678.815 588.489 679.765C585.925 682.335 583.355 684.898 580.783 687.461C577.992 690.245 575.207 693.036 572.421 695.825C567.533 700.717 562.641 705.606 557.747 710.492C550.469 717.757 543.198 725.028 535.927 732.3C523.698 744.532 511.464 756.76 499.227 768.984C487.108 781.092 474.99 793.202 462.875 805.314C462.123 806.067 461.37 806.819 460.595 807.595C456.773 811.416 452.95 815.238 449.128 819.059C422.041 846.142 394.949 873.221 367.854 900.296C341.529 926.604 315.205 952.91 288.885 979.23C288.074 980.04 287.263 980.85 286.427 981.68C278.283 989.82 270.139 997.97 261.994 1006.11C245.403 1022.69 228.811 1039.28 212.219 1055.87C211.075 1057.01 211.075 1057.01 209.907 1058.18C158.943 1109.12 107.972 1160.06 57 1211C53.2105 1209.23 50.5897 1206.86 47.6807 1203.91C47.1631 1203.39 46.6456 1202.87 46.1124 1202.34C44.4087 1200.64 42.7122 1198.92 41.0156 1197.21C39.8335 1196.03 38.6509 1194.84 37.468 1193.65C34.3597 1190.54 31.2575 1187.42 28.1566 1184.29C24.9895 1181.11 21.8168 1177.92 18.6445 1174.74C12.4241 1168.5 6.21006 1162.25 0 1156C1.43677 1152.72 3.20352 1150.55 5.7301 1148.02C6.51294 1147.23 7.29579 1146.45 8.10236 1145.64C8.96826 1144.77 9.83417 1143.91 10.7263 1143.03C11.6454 1142.11 12.5645 1141.18 13.5115 1140.24C16.0753 1137.67 18.6454 1135.1 21.2165 1132.54C24.0077 1129.75 26.7932 1126.96 29.5793 1124.17C34.4674 1119.28 39.3591 1114.39 44.2533 1109.51C51.5307 1102.24 58.8024 1094.97 66.073 1087.7C78.3023 1075.47 90.5363 1063.24 102.773 1051.02C114.892 1038.91 127.01 1026.8 139.125 1014.69C139.877 1013.93 140.63 1013.18 141.405 1012.41C145.227 1008.58 149.05 1004.76 152.872 1000.94C179.959 973.86 207.051 946.78 234.146 919.704C260.471 893.396 286.795 867.087 313.115 840.775C313.926 839.964 314.737 839.153 315.573 838.318C323.717 830.176 331.861 822.035 340.006 813.893C356.597 797.307 373.189 780.72 389.781 764.134C390.925 762.991 390.925 762.991 392.093 761.823C443.057 710.878 494.028 659.938 545 609Z" fill="#EF5436"></path>
</svg><style>@media (prefers-color-scheme: light) { :root { filter: none; } }
@media (prefers-color-scheme: dark) { :root { filter: none; } }
</style></svg>